<svg xmlns="http://www.w3.org/2000/svg" version="1.1" xmlns:xlink="http://www.w3.org/1999/xlink" width="2000" height="102" viewBox="0 0 2000 102"><svg xml:space="preserve" width="2000" height="102" data-version="2" data-id="lg_4G2rsFoaXIFwYvwnrB" viewBox="0 0 556 102" x="0" y="0"><rect width="100%" height="100%" fill="transparent"></rect><path fill="#fff" d="M19.89 93.82q0 5.8-7.14 5.8t-7.14-5.8V10.08q0-2.78 1.58-5.02 1.57-2.24 6.05-2.24h41.14q4.35 0 4.6 6.05.24 6.18-4.6 6.18H19.89Zm30.98-44.89q0 2.05-.79 3.93-.78 1.87-2.18 3.2-1.39 1.34-3.2 2.12-1.82.79-4 .79-4.11 0-7.01-2.91-2.91-2.9-2.91-7.13 0-4.24 2.91-7.14 2.9-2.91 7.01-2.91 2.18 0 4 .79 1.81.79 3.2 2.18 1.4 1.39 2.18 3.2.79 1.82.79 3.88"></path><rect width="53.45" height="96.8" x="-26.73" y="-48.4" fill="none" rx="0" ry="0" transform="translate(32.84 51.72)"></rect><path fill="#fff" d="m103.99 14.68-26.5 81.31v-.12q-.73 1.82-2 2.97-1.27 1.15-3.08 1.15-.97 0-1.88-.18-.91-.19-1.87-.43h.12q-6.9-2.18-5.09-7.74L91.28 7.79q.61-1.94 2.12-3.27 1.51-1.33 3.57-1.57 2.06-.37 3.99-.55 1.94-.18 3.03-.18 1.09 0 3.02.18 1.94.18 4 .42 1.69.25 3.32 1.82 1.64 1.57 2.48 3.15 6.78 20.81 13.74 41.92 6.95 21.12 13.73 41.93 1.69 5.56-5.08 7.74-.97.24-1.76.43-.78.18-1.75.18-1.69 0-3.09-1.15-1.39-1.15-1.99-2.97v.12Zm9.07 55.18q0 3.87-2.72 6.59-2.72 2.73-6.59 2.73-3.88 0-6.54-2.73-2.66-2.72-2.66-6.59 0-3.87 2.66-6.6 2.66-2.72 6.54-2.72 3.87 0 6.59 2.72 2.72 2.73 2.72 6.6"></path><rect width="82.55" height="97.77" x="-41.27" y="-48.88" fill="none" rx="0" ry="0" transform="translate(104.44 51.6)"></rect><path fill="#fff" d="M189.41 59.09h-9.31q-2.06 0-3.21-1.63-1.15-1.64-1.15-4.42 0-6.17 5.08-6.17h14.16q4.48 0 6.29-2.54 1.82-2.54 1.82-5.57V23.15q0-3.02-1.82-5.56-1.81-2.54-6.29-2.54h-25.53v78.89q0 5.81-7.14 5.81t-7.14-5.81V10.08q0-4.35 2.24-5.8 2.24-1.46 5.38-1.46H198q3.15 0 6.54 1.34 3.39 1.33 6.53 3.38h-.12q3.15 2.3 4.84 5.99 1.7 3.69 1.7 8.53v17.67q0 9.8-6.54 14.64-1.33.97-2.84 1.82-1.51.84-3.09 1.69l19.36 31.94q.37.61.73 1.58.36.96.36 1.57 0 2.9-4.11 5.57v-.13q-2.79 1.7-4.72 1.7-2.78 0-4.48-2.78l.12.12Z"></path><rect width="70.3" height="97.29" x="-35.15" y="-48.65" fill="none" rx="0" ry="0" transform="translate(190.82 51.97)"></rect><path fill="#fff" d="m268.55 14.68-26.5 81.31v-.12q-.73 1.82-2 2.97-1.27 1.15-3.08 1.15-.97 0-1.88-.18-.91-.19-1.87-.43h.12q-6.9-2.18-5.09-7.74l27.59-83.85q.61-1.94 2.12-3.27 1.51-1.33 3.57-1.57 2.06-.37 3.99-.55 1.94-.18 3.03-.18 1.09 0 3.02.18 1.94.18 4 .42 1.69.25 3.32 1.82 1.64 1.57 2.48 3.15 6.78 20.81 13.74 41.92 6.95 21.12 13.73 41.93 1.69 5.56-5.08 7.74-.97.24-1.76.43-.78.18-1.75.18-1.69 0-3.09-1.15-1.39-1.15-1.99-2.97v.12Zm9.07 55.18q0 3.87-2.72 6.59-2.72 2.73-6.59 2.73-3.88 0-6.54-2.73-2.66-2.72-2.66-6.59 0-3.87 2.66-6.6 2.66-2.72 6.54-2.72 3.87 0 6.59 2.72 2.72 2.73 2.72 6.6"></path><rect width="82.55" height="97.77" x="-41.27" y="-48.88" fill="none" rx="0" ry="0" transform="translate(269 51.6)"></rect><path fill="#fff" d="M362.44 86.8q4.48 0 6.3-2.54 1.81-2.54 1.81-5.69V23.15q0-3.02-1.81-5.56-1.82-2.54-6.3-2.54h-28.31l-.12 78.89q0 2.66-2.06 4.23-2.06 1.58-5.08 1.58-7.14 0-7.14-5.81V10.08q0-4.35 2.24-5.8 2.24-1.46 5.38-1.46h38.12q3.14 0 6.53 1.34 3.39 1.33 6.54 3.38h-.12q3.14 2.3 4.84 5.99 1.69 3.69 1.69 8.53v57.48q0 9.8-6.53 14.64-3.15 2.3-6.48 3.57-3.33 1.27-6.47 1.27h-20.33q-2.06 0-3.21-1.69-1.15-1.7-1.15-4.48 0-6.05 5.21-6.05Z"></path><rect width="65.22" height="96.93" x="-32.61" y="-48.47" fill="none" rx="0" ry="0" transform="translate(352.84 51.78)"></rect><path fill="#fff" d="m435.04 14.68-26.5 81.31v-.12q-.72 1.82-1.99 2.97-1.27 1.15-3.09 1.15-.97 0-1.87-.18-.91-.19-1.88-.43h.12q-6.89-2.18-5.08-7.74l27.59-83.85q.6-1.94 2.12-3.27 1.51-1.33 3.57-1.57 2.05-.37 3.99-.55 1.93-.18 3.02-.18t3.03.18q1.93.18 3.99.42 1.7.25 3.33 1.82 1.63 1.57 2.48 3.15 6.78 20.81 13.73 41.92 6.96 21.12 13.74 41.93 1.69 5.56-5.09 7.74-.96.24-1.75.43-.79.18-1.75.18-1.7 0-3.09-1.15t-2-2.97v.12Zm9.08 55.18q0 3.87-2.72 6.59-2.73 2.73-6.6 2.73-3.87 0-6.53-2.73-2.66-2.72-2.66-6.59 0-3.87 2.66-6.6 2.66-2.72 6.53-2.72t6.6 2.72q2.72 2.73 2.72 6.6"></path><rect width="82.55" height="97.77" x="-41.27" y="-48.88" fill="none" rx="0" ry="0" transform="translate(435.5 51.6)"></rect><path fill="#fff" d="M521.56 94.06q0 5.81-7.14 5.81t-7.14-5.81V61.87l-27.1-51.54q-.73-1.58-.73-3.27 0-3.51 4.11-5.2h-.12q2.67-.97 4.24-.97 3.14 0 4.84 3.14l22.02 41.39q2.42-4.6 5.2-9.87 2.79-5.26 5.63-10.7 2.84-5.45 5.63-10.77 2.78-5.33 5.32-10.05.97-1.45 2.12-2.29 1.15-.85 2.84-.85 1.7 0 3.99.97h-.12q4.24 1.81 4.24 5.32 0 .73-.12 1.51-.12.79-.61 1.64-1.09 2.17-2.72 5.32-1.63 3.15-4.6 8.77-2.96 5.63-7.68 14.64-4.72 9.02-12.1 23.18Z"></path><rect width="69.94" height="98.98" x="-34.97" y="-49.49" fill="none" rx="0" ry="0" transform="translate(514.92 50.88)"></rect></svg></svg>